<svg width="40" height="40" viewBox="0 0 40 40" fill="none" xmlns="http://www.w3.org/2000/svg">
<g clip-path="url(#clip0_141_43)">
<circle cx="20" cy="20" r="20" fill="white"/>
<path d="M26.2961 9H24.3715L20.6284 14.3261H24.3715C26.1984 14.3261 27.9505 15.0058 29.2423 16.2156C30.5342 17.4255 31.2599 19.0664 31.2599 20.7775C31.2599 22.4885 30.5342 24.1294 29.2423 25.3393C27.9505 26.5491 26.1984 27.4141 24.3715 27.4141H23.2237V29.8094L23.2239 32L25.7884 32C28.762 32 31.6136 31.1664 33.7162 28.9887C35.8189 26.8109 37.0002 23.8572 37.0002 20.7774C37.0002 17.6976 35.8189 14.7439 33.7162 12.5662C31.6136 10.3884 29.2697 9 26.2961 9Z" fill="url(#paint0_linear_141_43)" stroke="#6E6E6E" stroke-width="0.4"/>
<path d="M6.00009 13.7135V9.1419L23.2503 9L11.1869 27.4284H22.425V32H6.00009L6 27.4284L15.5092 13.7135H6.00009Z" fill="url(#paint1_linear_141_43)" stroke="#6E6E6E" stroke-width="0.4"/>
</g>
<defs>
<linearGradient id="paint0_linear_141_43" x1="35.5458" y1="24.6011" x2="35.2183" y2="9.32326" gradientUnits="userSpaceOnUse">
<stop stop-color="#049949"/>
<stop offset="1" stop-color="#00FF9D"/>
</linearGradient>
<linearGradient id="paint1_linear_141_43" x1="6.45711" y1="9.59191" x2="21.984" y2="14.0587" gradientUnits="userSpaceOnUse">
<stop stop-color="#0B7C42"/>
<stop offset="1" stop-color="#053D20"/>
</linearGradient>
<clipPath id="clip0_141_43">
<rect width="40" height="40" fill="white"/>
</clipPath>
</defs>
</svg>
