<svg width="16" height="16" viewBox="0 0 16 16" fill="none" xmlns="http://www.w3.org/2000/svg">
<path d="M11.1562 5.82812L8.76562 4.95312L9.92188 3.82812L8.40625 2.5L13.1562 3.59115L11.1562 5.82812Z" fill="url(#paint0_linear_125_66)"/>
<path d="M6.40625 11.0312H12.1875V13.4375H6.40625V11.0312Z" fill="url(#paint1_linear_125_66)"/>
<path d="M2.84375 13.4375V11.0225L6.40625 7.65625V13.4375H2.84375Z" fill="url(#paint2_linear_125_66)"/>
<path d="M2.84375 2.53125H8.26479L9.75 3.84375L8.63609 4.9375H2.84375V2.53125Z" fill="url(#paint3_linear_125_66)"/>
<path opacity="0.4" d="M2.84375 2.53125H8.26478L9.75 3.84375L8.63609 4.9375H2.84375V2.53125Z" fill="black"/>
<path opacity="0.4" d="M2.84375 13.4375V11.0225L6.40625 7.65625V13.4375H2.84375Z" fill="black"/>
<path d="M6.375 11.0625L11.0937 5.91119L8.68775 5.03125L6.375 7.70773V11.0625Z" fill="url(#paint4_linear_125_66)"/>
<defs>
<linearGradient id="paint0_linear_125_66" x1="7.67127" y1="6.46804" x2="11.6286" y2="1.81977" gradientUnits="userSpaceOnUse">
<stop stop-color="#049949"/>
<stop offset="1" stop-color="#00FF9D"/>
</linearGradient>
<linearGradient id="paint1_linear_125_66" x1="6.40625" y1="11.0313" x2="8.11354" y2="15.1332" gradientUnits="userSpaceOnUse">
<stop stop-color="#086334"/>
<stop offset="1" stop-color="#022915"/>
</linearGradient>
<linearGradient id="paint2_linear_125_66" x1="2.84375" y1="7.65625" x2="8.00784" y2="10.8384" gradientUnits="userSpaceOnUse">
<stop stop-color="#108F4E"/>
<stop offset="1" stop-color="#064726"/>
</linearGradient>
<linearGradient id="paint3_linear_125_66" x1="2.84375" y1="2.53125" x2="4.339" y2="6.82277" gradientUnits="userSpaceOnUse">
<stop stop-color="#0B7C42"/>
<stop offset="1" stop-color="#053D20"/>
</linearGradient>
<linearGradient id="paint4_linear_125_66" x1="6.375" y1="11.0625" x2="12.2986" y2="6.24115" gradientUnits="userSpaceOnUse">
<stop stop-color="#08542C" stop-opacity="0.85"/>
<stop offset="1" stop-color="#128F4D" stop-opacity="0.45"/>
</linearGradient>
</defs>
</svg>
