<svg width="40" height="40" viewBox="0 0 40 40" fill="none" xmlns="http://www.w3.org/2000/svg">
<g clip-path="url(#clip0_128_41)">
<circle cx="20" cy="20" r="20" fill="white"/>
<path d="M26.7371 16.3913L21.6415 14.711L24.106 12.5505L20.8755 10L31.0001 12.0954L26.7371 16.3913Z" fill="url(#paint0_linear_128_41)"/>
<path d="M16.6123 26.3645H28.9445V31H16.6123V26.3645Z" fill="url(#paint1_linear_128_41)"/>
<path d="M9 31.0001V26.3646L16.6125 19.9031V31.0001H9Z" fill="url(#paint2_linear_128_41)"/>
<path d="M9 10H20.5922L23.7682 12.5284L21.3862 14.6355H9V10Z" fill="url(#paint3_linear_128_41)"/>
<path opacity="0.4" d="M9 10H20.5922L23.7682 12.5284L21.3862 14.6355H9V10Z" fill="black"/>
<path opacity="0.4" d="M9 31.0001V26.3646L16.6125 19.9031V31.0001H9Z" fill="black"/>
<path d="M16.5361 26.4348L26.5846 16.5369L21.4611 14.8462L16.5361 19.9889V26.4348Z" fill="url(#paint4_linear_128_41)"/>
</g>
<defs>
<linearGradient id="paint0_linear_128_41" x1="19.3089" y1="17.6202" x2="26.7441" y2="7.92681" gradientUnits="userSpaceOnUse">
<stop stop-color="#049949"/>
<stop offset="1" stop-color="#00FF9D"/>
</linearGradient>
<linearGradient id="paint1_linear_128_41" x1="16.6123" y1="26.3645" x2="19.6657" y2="34.4877" gradientUnits="userSpaceOnUse">
<stop stop-color="#086334"/>
<stop offset="1" stop-color="#022915"/>
</linearGradient>
<linearGradient id="paint2_linear_128_41" x1="9" y1="19.9031" x2="19.353" y2="27.0051" gradientUnits="userSpaceOnUse">
<stop stop-color="#108F4E"/>
<stop offset="1" stop-color="#064726"/>
</linearGradient>
<linearGradient id="paint3_linear_128_41" x1="9" y1="10" x2="11.649" y2="18.4394" gradientUnits="userSpaceOnUse">
<stop stop-color="#0B7C42"/>
<stop offset="1" stop-color="#053D20"/>
</linearGradient>
<linearGradient id="paint4_linear_128_41" x1="16.5361" y1="26.4348" x2="28.0985" y2="16.005" gradientUnits="userSpaceOnUse">
<stop stop-color="#08542C" stop-opacity="0.85"/>
<stop offset="1" stop-color="#128F4D" stop-opacity="0.45"/>
</linearGradient>
<clipPath id="clip0_128_41">
<rect width="40" height="40" fill="white"/>
</clipPath>
</defs>
</svg>
